<svg width="108" height="150" viewBox="0 0 108 150" fill="none" xmlns="http://www.w3.org/2000/svg">
<path fill-rule="evenodd" clip-rule="evenodd" d="M9.96854 0C4.46307 0 0 4.54379 0 10.1489V95.7037C0 118.449 13.7375 137.928 33.2262 146.009C15.5463 108.564 10.0137 64.8613 9.5483 47.402L9.47819 47.2285C7.6227 42.6375 6.64109 40.2087 10.2014 34.503C15.7147 39.343 13.3769 45.2929 11.979 47.3813C14.6103 96.317 27.7685 130.712 36.967 147.396C37.5059 147.573 38.0486 147.741 38.5949 147.901L36.8674 145.366C33.2044 129.531 31.3561 113.18 30.6685 97.7012C28.4374 97.3684 26.867 96.8959 25.981 96.3554C22.8457 94.4429 17.8291 90.8304 15.7389 81.0554C15.4631 79.7656 15.502 78.5275 15.7823 77.3502C14.8042 71.8838 19.9785 68.2085 22.842 67.0096C22.8307 67.6057 22.7993 68.1725 22.7498 68.7112C23.1226 68.4547 23.4983 68.209 23.8739 67.9743C23.0458 67.0278 22.3028 65.8124 21.7789 64.324C21.6569 64.2544 21.5634 64.1343 21.5305 63.9843C21.5054 63.8697 21.5197 63.7553 21.5643 63.6561C21.4597 63.2974 21.3676 62.9245 21.2896 62.5371C20.2846 68.8036 16.6403 70.6743 14.7113 70.7873C13.0267 65.1526 17.8977 61.2522 20.9962 59.76C20.9885 59.3211 20.9974 58.8685 21.0245 58.4022C23.0043 59.411 27.0225 61.8998 28.6606 65.5112C28.8162 65.4478 28.9682 65.3875 29.1163 65.3305C29.6307 65.006 30.2136 64.577 30.8496 64.0599C31.6723 48.731 33.3653 35.9799 34.9289 27.9274C34.4403 27.1992 34.0538 26.4488 33.7501 25.7093C34.4786 28.2893 34.4802 31.1035 32.7079 33.5784C29.9979 33.5516 25.4145 27.0025 29.7557 18.3738C30.7157 19.5519 32.2306 21.6786 33.2219 24.1635C32.907 23.0252 32.7713 21.9758 32.7351 21.1532C32.7019 21.1589 32.6677 21.1616 32.6329 21.1613C32.3122 21.1582 32.0548 20.891 32.0579 20.5645C32.0611 20.238 32.3235 19.976 32.6442 19.9792C32.6823 19.9796 32.7195 19.9836 32.7554 19.9912C32.7843 19.6999 32.8301 19.5048 32.8787 19.4307C32.912 19.3799 32.9466 19.3144 32.9858 19.2402C33.0818 19.0582 33.2054 18.824 33.4046 18.6275C33.3025 18.5198 33.2402 18.3727 33.2417 18.2111C33.2449 17.8847 33.5073 17.6226 33.828 17.6258C34.1486 17.629 34.4061 17.8962 34.403 18.2226C34.4029 18.2267 34.4028 18.2309 34.4027 18.2349C34.6226 18.2325 34.877 18.2668 35.1727 18.3503C35.826 16.7174 37.0333 15.011 39.0995 12.9479C41.619 16.4657 41.7498 19.7611 40.9994 22.3963C41.0787 22.4691 41.1587 22.543 41.2396 22.6182C41.7886 23.1285 42.3412 23.5419 42.8994 23.8696C43.9902 23.0694 45.0848 22.4674 45.9812 22.0819C45.9717 23.0759 45.9125 23.9988 45.811 24.855C48.7899 25.2068 52.0101 23.8301 55.7535 22.2295C59.8003 20.4993 64.4586 18.5077 70.0846 18.1556C79.4387 17.5705 80.1728 19.9063 81.0186 22.5974C81.4013 23.815 81.8068 25.1053 83.0439 26.2306C84.1454 27.2325 90.7777 32.3931 97.4664 27.5057C101.431 24.609 102.58 23.3218 102.683 22.8492C104.175 24.6246 106.577 28.7058 105.618 32.6057C104.615 36.6856 99.7657 38.8389 97.4664 39.4056C98.4419 41.3181 101.647 45.1431 106.663 45.1431V10.1489C106.663 4.54379 102.2 0 96.6949 0H9.96854ZM102.483 22.6182C102.627 22.6182 102.719 22.6838 102.683 22.8492C102.615 22.7671 102.548 22.69 102.483 22.6182ZM8.77953 53.4206C6.45961 53.9474 1.26312 49.2833 3.28245 41.0327C5.5856 42.8119 11.0587 47.9445 8.77953 53.4206ZM13.8436 53.5104C15.9607 52.8525 19.7294 49.4112 17.8667 40.9087C15.2227 42.8668 10.7163 48.1285 13.8436 53.5104ZM9.35884 60.5915C7.3734 61.6296 1.56666 58.6445 1.48223 50.6608C3.98886 51.7221 10.1559 55.0661 9.35884 60.5915ZM10.5709 69.5253C8.58544 70.5633 2.7787 67.5783 2.69427 59.5946C5.2009 60.6558 11.3679 63.9999 10.5709 69.5253ZM11.3452 77.1533C9.54653 78.4987 3.3483 76.4889 2.02134 68.6198C4.66157 69.263 11.2715 71.5691 11.3452 77.1533ZM12.9821 85.5267C11.1835 86.8721 4.98525 84.8623 3.65829 76.9932C6.29852 77.6364 12.9084 79.9425 12.9821 85.5267ZM13.8575 62.1265C16.0674 61.997 20.5285 59.5606 20.6935 50.8508C17.6696 52.1168 12.0689 56.1444 13.8575 62.1265ZM4.19265 75.3593C4.25389 75.6388 4.08096 75.9159 3.80641 75.9782C3.53187 76.0406 3.25967 75.8645 3.19843 75.585C3.13719 75.3055 3.31012 75.0284 3.58467 74.966C3.85921 74.9037 4.13141 75.0798 4.19265 75.3593ZM21.9192 66.5525C22.1937 66.4901 22.3666 66.213 22.3054 65.9334C22.2442 65.6539 21.9719 65.4779 21.6974 65.5403C21.4229 65.6026 21.2499 65.8797 21.3112 66.1592C21.3724 66.4388 21.6446 66.6148 21.9192 66.5525ZM19.6228 49.7188C19.8974 49.6564 20.0703 49.3793 20.009 49.0998C19.9478 48.8203 19.6756 48.6442 19.4011 48.7066C19.1265 48.7689 18.9536 49.046 19.0148 49.3256C19.0761 49.6051 19.3483 49.7811 19.6228 49.7188ZM6.67174 42.2112C6.73298 42.4908 6.56005 42.7679 6.28551 42.8302C6.01096 42.8926 5.73876 42.7164 5.67752 42.437C5.61629 42.1575 5.78921 41.8804 6.06376 41.818C6.33831 41.7557 6.61051 41.9317 6.67174 42.2112ZM6.83618 40.58C7.11073 40.5177 7.28366 40.2405 7.22242 39.961C7.16118 39.6815 6.88898 39.5055 6.61444 39.5678C6.33989 39.6302 6.16696 39.9073 6.2282 40.1868C6.28944 40.4663 6.56164 40.6424 6.83618 40.58ZM5.49155 39.9999C5.55278 40.2794 5.37986 40.5565 5.10531 40.6189C4.83076 40.6812 4.55856 40.5052 4.49732 40.2257C4.43609 39.9461 4.60901 39.669 4.88356 39.6067C5.15811 39.5443 5.43031 39.7204 5.49155 39.9999ZM2.75446 48.9447C3.029 48.8824 3.20193 48.6053 3.14069 48.3258C3.07946 48.0463 2.80725 47.8702 2.53271 47.9325C2.25816 47.9948 2.08524 48.272 2.14647 48.5515C2.20771 48.831 2.47991 49.0071 2.75446 48.9447ZM3.51024 50.0127C3.57147 50.2922 3.39855 50.5694 3.12401 50.6318C2.84946 50.6941 2.57726 50.518 2.51602 50.2385C2.45479 49.959 2.62771 49.6819 2.90226 49.6196C3.1768 49.5572 3.44901 49.7332 3.51024 50.0127ZM31.5269 41.6935C29.0583 42.3226 23.3701 37.4769 25.3075 28.5897C27.8207 30.4292 33.8177 35.7686 31.5269 41.6935ZM30.5999 51.9329C28.1312 52.5619 22.443 47.7162 24.3804 38.8291C26.8937 40.6685 32.8906 46.0079 30.5999 51.9329ZM29.519 60.6069C27.1796 61.6265 20.8086 57.7605 21.3372 48.6731C24.1051 50.0834 30.8579 54.3869 29.519 60.6069ZM21.4471 57.314C21.7678 57.3172 22.0303 57.0551 22.0334 56.7287C22.0365 56.4022 21.7791 56.1349 21.4584 56.1318C21.1377 56.1286 20.8753 56.3907 20.8722 56.7172C20.869 57.0437 21.1265 57.3109 21.4471 57.314ZM31.885 18.3948C32.2056 18.398 32.4681 18.1359 32.4712 17.8094C32.4743 17.483 32.2169 17.2158 31.8963 17.2126C31.5756 17.2094 31.3131 17.4715 31.31 17.798C31.3069 18.1244 31.5643 18.3916 31.885 18.3948ZM27.7429 26.4342C27.7397 26.7607 27.4773 27.0228 27.1566 27.0196C26.8359 27.0165 26.5785 26.7492 26.5816 26.4228C26.5848 26.0963 26.8472 25.8342 27.1679 25.8373C27.4886 25.8405 27.746 26.1078 27.7429 26.4342ZM27.1377 28.9902C27.4584 28.9934 27.7208 28.7314 27.724 28.4049C27.7271 28.0784 27.4697 27.8112 27.149 27.808C26.8283 27.8049 26.5659 28.0669 26.5627 28.3934C26.5596 28.7199 26.8171 28.9871 27.1377 28.9902Z" fill="#556B2F"/>
<path d="M97.764 125.744L87.4334 111.018C84.7161 105.139 75.4356 93.9754 60.0515 96.3554C48.0345 98.2145 38.956 98.497 33.0711 97.9805C34.1251 120.691 37.7059 137.99 41.0595 148.556C44.9996 149.5 49.1083 150 53.3317 150C71.875 150 88.2079 140.365 97.764 125.744Z" fill="#556B2F"/>
<path fill-rule="evenodd" clip-rule="evenodd" d="M33.6113 61.5875C33.9235 61.2869 34.2413 60.9745 34.5638 60.6519C35.2947 57.101 38.1487 54.862 40.932 53.5975C42.1382 52.1346 43.3131 50.6323 44.4056 49.1448C44.2661 49.0355 44.1769 48.8632 44.1787 48.6703C44.1819 48.3438 44.4443 48.0818 44.765 48.0849C44.8878 48.0861 45.0013 48.1261 45.0945 48.1933C45.5721 47.5237 46.0306 46.8594 46.4651 46.2056C51.3204 38.9002 57.2585 35.4473 61.2612 33.1197C61.5664 32.9422 61.8604 32.7713 62.1418 32.6057C60.6829 32.276 58.294 32.5598 55.4963 32.8922C51.4589 33.3718 46.5703 33.9525 42.398 32.9366C40.9643 34.3669 39.3981 34.9389 38.308 35.0134C37.8662 33.5849 37.7971 32.2509 37.9954 31.0214C37.7611 30.8613 37.5368 30.6957 37.322 30.5251C35.5209 41.4385 34.3247 51.8123 33.6113 61.5875ZM36.1315 44.5841C38.6183 45.023 44.1916 43.4941 46.5906 33.8665C42.9109 34.4749 35.6675 37.4702 36.1315 44.5841ZM34.8761 54.4259C37.3629 54.8648 42.9362 53.3359 45.3352 43.7083C41.6555 44.3167 34.4121 47.312 34.8761 54.4259Z" fill="#556B2F"/>
<path d="M83.9735 98.3228C83.6019 98.1792 83.2449 98.0083 82.9137 97.8032C81.3375 96.8268 80.1808 95.2999 78.9986 93.7393C77.5807 91.8676 76.126 89.9473 73.8668 88.87C69.7239 86.8944 66.6551 85.8636 61.4131 84.1457C58.8182 83.2953 56.8242 82.5291 55.1848 81.8992C54.2154 81.5268 53.37 81.2019 52.5977 80.9355C51.5721 80.5817 50.6086 80.0409 49.842 79.2621L49.5761 78.992C49.2409 78.6205 48.8031 78.5614 48.3564 78.5011C47.5634 78.394 46.7424 78.2831 46.4179 76.4151C46.3961 76.2892 46.3741 76.163 46.352 76.0367C45.8628 73.2331 45.3662 70.3876 46.4179 70.0588C47.5171 69.7152 49.7926 69.1998 51.7446 69.1998C53.8583 69.1998 59.553 63.8742 60.483 61.0397C61.1087 59.1328 59.9447 56.8899 58.972 55.5775C58.6582 55.1542 58.4641 54.6471 58.4678 54.1167C58.5038 48.9082 57.6856 39.86 57.101 38.9644C55.9932 37.2674 66.486 46.3515 68.4307 50.6463C70.3753 54.9411 78.7458 50.3886 78.9994 49.4438C79.0323 49.3214 79.0297 49.0321 79.026 48.6178C79.0017 45.9067 78.9295 37.8459 88.429 36.2464C88.8239 36.1799 89.1649 36.5321 89.1396 36.9387C88.8228 42.0361 92.5233 50.9857 94.8948 53.395C97.3975 55.9375 104.674 55.9432 108 55.6283V97.8012C107.763 97.6837 107.527 97.5587 107.298 97.4237C107.172 97.3492 107.041 97.2788 106.904 97.2056C105.214 96.2997 102.724 94.9647 99.8535 80.2228C99.7125 79.4986 97.1059 71.3508 90.7245 68.8159C92.3494 69.178 95.8296 69.4134 96.7514 67.458C97.9036 65.0136 97.3718 59.2196 91.6108 61.3924C91.8767 60.4871 92.0717 58.4592 90.7245 57.5901C89.9545 57.0933 89.9443 57.8459 89.9312 58.8091C89.9157 59.9524 89.8962 61.3924 88.5974 61.3924C88.1838 61.3924 87.3034 60.6319 87.0907 57.5901C86.878 54.5482 86.293 59.461 86.0271 62.2977C85.4953 61.8149 84.3608 60.5233 84.0772 59.2196C83.7936 57.916 82.8955 61.8149 82.4819 63.9272C82.1864 63.6255 81.5247 62.696 81.241 61.3924C80.9574 60.0887 80.4138 64.2894 80.1775 66.5526L80.1766 66.5615C80.1285 67.0216 79.9991 68.2616 79.823 66.5526C79.591 64.3018 77.164 71.7129 80.532 73.5235C79.8525 73.9762 78.3162 75.2255 76.8981 76.9637H81.9501L82.7478 78.2311C81.9501 78.4122 80.6738 80.0599 81.241 83.3914C81.8083 86.723 84.4022 85.7754 85.7612 84.7494C86.8054 85.5558 87.4851 89.2103 83.9735 98.3228Z" fill="#556B2F"/>
</svg>
