<svg width="144" height="196" viewBox="0 0 144 196" fill="none" xmlns="http://www.w3.org/2000/svg">
<path fill-rule="evenodd" clip-rule="evenodd" d="M13.2914 0C5.95076 0 0 5.93722 0 13.2612V125.053C0 154.773 18.3166 180.226 44.3016 190.786C20.7284 141.857 13.3516 84.752 12.7311 61.9386L12.6376 61.7119C10.1636 55.7129 8.85479 52.5393 13.6018 45.0839C20.953 51.4082 17.8359 59.1827 15.972 61.9115C19.4804 125.854 37.0247 170.797 49.2893 192.598C50.0079 192.828 50.7315 193.048 51.4598 193.257L49.1565 189.945C44.2726 169.254 41.8082 147.889 40.8913 127.663C37.9165 127.228 35.8227 126.611 34.6413 125.904C30.4609 123.405 23.7722 118.685 20.9852 105.912C20.6175 104.227 20.6693 102.609 21.043 101.071C19.739 93.9282 26.6379 89.1258 30.456 87.5592C30.4409 88.3381 30.399 89.0788 30.3331 89.7826C30.8302 89.4475 31.3311 89.1264 31.8319 88.8198C30.7277 87.583 29.737 85.9949 29.0385 84.05C28.8758 83.9591 28.7511 83.8021 28.7074 83.6062C28.6739 83.4564 28.6929 83.3069 28.7524 83.1773C28.6129 82.7086 28.4901 82.2213 28.3861 81.7152C27.0461 89.9033 22.1871 92.3477 19.6151 92.4955C17.3689 85.1328 23.8636 80.0362 27.9949 78.0864C27.9846 77.5129 27.9966 76.9215 28.0327 76.3122C30.6724 77.6304 36.0301 80.8823 38.2141 85.6013C38.4216 85.5184 38.6243 85.4397 38.8218 85.3652C39.5076 84.9411 40.2848 84.3806 41.1328 83.7049C42.2297 63.6752 44.4871 47.0137 46.5719 36.4918C45.9204 35.5403 45.405 34.5597 45.0001 33.5935C45.9715 36.9647 45.9736 40.6418 43.6105 43.8758C39.9972 43.8407 33.886 35.2832 39.6742 24.0084C40.9543 25.5478 42.9741 28.3267 44.2959 31.5736C43.876 30.0863 43.6951 28.7151 43.6468 27.6402C43.6025 27.6476 43.557 27.6512 43.5105 27.6508C43.083 27.6467 42.7398 27.2975 42.7439 26.871C42.7481 26.4444 43.098 26.102 43.5256 26.1061C43.5764 26.1066 43.626 26.1119 43.6739 26.1218C43.7124 25.7412 43.7734 25.4863 43.8383 25.3894C43.8826 25.3231 43.9288 25.2375 43.981 25.1405C44.1091 24.9028 44.2739 24.5967 44.5395 24.3399C44.4033 24.1992 44.3203 24.007 44.3223 23.7959C44.3265 23.3693 44.6764 23.0269 45.104 23.031C45.5315 23.0352 45.8748 23.3843 45.8706 23.8109L45.8705 23.8171L45.8703 23.827C46.1635 23.8239 46.5027 23.8687 46.8969 23.9777C47.768 21.844 49.3777 19.6143 52.1326 16.9186C55.4921 21.5152 55.6664 25.8212 54.6659 29.2644C54.7715 29.3596 54.8783 29.4562 54.9861 29.5544C55.7182 30.2212 56.4549 30.7614 57.1992 31.1896C58.6536 30.144 60.113 29.3574 61.3083 28.8537C61.2956 30.1526 61.2166 31.3584 61.0814 32.4772C65.0532 32.9369 69.3468 31.138 74.3381 29.0466C79.7337 26.7857 85.9448 24.1834 93.4461 23.7234C105.918 22.9588 106.897 26.0109 108.025 29.5273C108.535 31.1183 109.076 32.8043 110.725 34.2747C112.194 35.5838 121.037 42.3269 129.955 35.9407C135.241 32.1557 136.774 30.4739 136.911 29.8563C138.9 32.1762 142.103 37.5089 140.824 42.6047C139.487 47.9359 133.021 50.7495 129.955 51.49C131.256 53.989 135.529 58.9869 142.218 58.9869V13.2612C142.218 5.93722 136.267 0 128.926 0H13.2914ZM136.644 29.5544C136.73 29.6483 136.819 29.749 136.911 29.8563C136.959 29.6401 136.837 29.5544 136.644 29.5544ZM11.706 69.8029C8.61282 70.4912 1.68415 64.3968 4.37659 53.616C7.44746 55.9409 14.7449 62.6475 11.706 69.8029ZM18.4581 69.9203C21.281 69.0606 26.3059 64.564 23.8223 53.454C20.2969 56.0126 14.2884 62.888 18.4581 69.9203ZM12.4785 79.1729C9.83121 80.5293 2.08888 76.6288 1.97631 66.1968C5.31848 67.5835 13.5412 71.9531 12.4785 79.1729ZM14.0945 90.8464C11.4473 92.2028 3.70493 88.3023 3.59236 77.8702C6.93453 79.257 15.1573 83.6265 14.0945 90.8464ZM15.1269 100.814C12.7287 102.572 4.4644 99.9455 2.69512 89.6632C6.21543 90.5037 15.0286 93.517 15.1269 100.814ZM17.3095 111.755C14.9113 113.513 6.647 110.887 4.87772 100.604C8.39803 101.445 17.2112 104.458 17.3095 111.755ZM18.4766 81.1787C21.4232 81.0094 27.3714 77.8258 27.5913 66.445C23.5595 68.0993 16.0919 73.362 18.4766 81.1787ZM5.5902 98.4695C5.67185 98.8346 5.44128 99.1967 5.07522 99.2782C4.70915 99.3597 4.34622 99.1297 4.26457 98.7645C4.18293 98.3991 4.41349 98.037 4.77955 97.9556C5.14561 97.8741 5.50855 98.1043 5.5902 98.4695ZM29.2255 86.9619C29.5916 86.8804 29.8222 86.5183 29.7405 86.153C29.6589 85.7878 29.2959 85.5578 28.9299 85.6393C28.5638 85.7207 28.3332 86.0828 28.4149 86.448C28.4965 86.8134 28.8595 87.0434 29.2255 86.9619ZM26.1637 64.9659C26.5298 64.8844 26.7604 64.5223 26.6787 64.1571C26.5971 63.7919 26.2341 63.5618 25.8681 63.6432C25.502 63.7247 25.2715 64.0868 25.3531 64.4521C25.4347 64.8173 25.7977 65.0473 26.1637 64.9659ZM8.89566 55.156C8.97731 55.5213 8.74674 55.8834 8.38068 55.9648C8.01462 56.0463 7.65168 55.8162 7.57003 55.451C7.48839 55.0858 7.71895 54.7237 8.08502 54.6422C8.45108 54.5608 8.81401 54.7908 8.89566 55.156ZM9.11491 53.0246C9.48098 52.9431 9.71154 52.5809 9.6299 52.2157C9.54825 51.8505 9.18531 51.6205 8.81925 51.702C8.45318 51.7834 8.22262 52.1455 8.30426 52.5107C8.38591 52.8759 8.74885 53.106 9.11491 53.0246ZM7.32207 52.2666C7.40371 52.6318 7.17315 52.9939 6.80708 53.0753C6.44102 53.1568 6.07808 52.9268 5.99643 52.5616C5.91479 52.1963 6.14535 51.8342 6.51142 51.7527C6.87748 51.6713 7.24042 51.9013 7.32207 52.2666ZM3.67261 63.9544C4.03867 63.873 4.26924 63.5109 4.18759 63.1457C4.10595 62.7805 3.74301 62.5503 3.37695 62.6318C3.01088 62.7133 2.78032 63.0754 2.86196 63.4407C2.94362 63.8059 3.30655 64.0359 3.67261 63.9544ZM4.68032 65.35C4.76197 65.7151 4.5314 66.0774 4.16535 66.1588C3.79928 66.2403 3.43634 66.0102 3.3547 65.645C3.27305 65.2798 3.50362 64.9177 3.86968 64.8362C4.23574 64.7548 4.59868 64.9848 4.68032 65.35ZM42.0359 54.4796C38.7444 55.3015 31.1601 48.9698 33.7433 37.3572C37.0943 39.7608 45.0902 46.7376 42.0359 54.4796ZM40.7998 67.859C37.5083 68.6809 29.9241 62.3492 32.5072 50.7366C35.8582 53.1402 43.8541 60.117 40.7998 67.859ZM39.3587 79.193C36.2395 80.5253 27.7448 75.4738 28.4496 63.5995C32.1402 65.4423 41.1438 71.0656 39.3587 79.193ZM28.5962 74.8904C29.0237 74.8945 29.3737 74.552 29.3778 74.1255C29.382 73.6989 29.0388 73.3496 28.6112 73.3455C28.1837 73.3414 27.8337 73.6839 27.8295 74.1105C27.8254 74.5371 28.1686 74.8862 28.5962 74.8904ZM42.5133 24.0359C42.9409 24.04 43.2908 23.6976 43.295 23.271C43.2991 22.8444 42.9559 22.4953 42.5284 22.4911C42.1008 22.487 41.7508 22.8294 41.7467 23.256C41.7425 23.6826 42.0858 24.0317 42.5133 24.0359ZM36.9905 34.5407C36.9863 34.9673 36.6364 35.3098 36.2088 35.3056C35.7813 35.3015 35.438 34.9522 35.4422 34.5258C35.4463 34.0992 35.7963 33.7567 36.2239 33.7608C36.6514 33.7649 36.9946 34.1142 36.9905 34.5407ZM36.1836 37.8806C36.6112 37.8847 36.9611 37.5423 36.9653 37.1157C36.9694 36.6891 36.6262 36.34 36.1987 36.3358C35.7711 36.3317 35.4212 36.6741 35.417 37.1007C35.4128 37.5273 35.7561 37.8764 36.1836 37.8806Z" fill="white"/>
<path d="M130.352 164.306L116.578 145.063C112.955 137.381 100.581 122.794 80.0687 125.904C64.046 128.334 51.9414 128.703 44.0948 128.028C45.5002 157.703 50.2746 180.307 54.7459 194.113C59.9994 195.347 65.4778 196 71.1089 196C95.8333 196 117.611 183.41 130.352 164.306Z" fill="white"/>
<path fill-rule="evenodd" clip-rule="evenodd" d="M44.8151 80.4743C45.2313 80.0815 45.6551 79.6733 46.085 79.2518C47.0596 74.6119 50.8649 71.6863 54.5759 70.0341C56.1842 68.1225 57.7509 66.1595 59.2074 64.2159C59.0215 64.0731 58.9025 63.848 58.905 63.5958C58.9091 63.1692 59.2591 62.8268 59.6867 62.831C59.8504 62.8325 60.0017 62.8847 60.126 62.9725C60.7628 62.0976 61.3741 61.2297 61.9535 60.3753C68.4271 50.8298 76.3444 46.318 81.6813 43.2766C82.0883 43.0447 82.4805 42.8211 82.8557 42.6047C80.9106 42.174 77.7253 42.5448 73.9951 42.9791C68.6119 43.6058 62.0937 44.3646 56.5307 43.0371C54.6191 44.9061 52.5307 45.6535 51.0774 45.7509C50.4883 43.8842 50.3961 42.1412 50.6606 40.5346C50.3481 40.3255 50.049 40.1091 49.7627 39.8862C47.3612 54.1463 45.7663 67.7013 44.8151 80.4743ZM48.1754 58.2565C51.491 58.8301 58.9221 56.8322 62.1208 44.2523C57.2145 45.0472 47.5566 48.961 48.1754 58.2565ZM46.5015 71.1165C49.8172 71.6901 57.2483 69.6922 60.4469 57.1122C55.5407 57.9071 45.8828 61.821 46.5015 71.1165Z" fill="white"/>
<path d="M111.965 128.475C111.469 128.287 110.993 128.064 110.552 127.796C108.45 126.521 106.908 124.526 105.333 122.487C103.442 120.041 101.501 117.531 98.4891 116.123C92.9652 113.542 88.8735 112.195 81.8841 109.95C78.4243 108.839 75.7655 107.838 73.5797 107.015C72.2872 106.528 71.16 106.104 70.1303 105.756C68.7628 105.293 67.4781 104.587 66.456 103.569L66.1014 103.216C65.6546 102.731 65.0708 102.654 64.4752 102.575C63.4179 102.435 62.3233 102.29 61.8906 99.849L61.8027 99.3546C61.1504 95.6913 60.4882 91.9731 61.8906 91.5435C63.3561 91.0945 66.3901 90.4211 68.9928 90.4211C71.8111 90.4211 79.404 83.4624 80.644 79.7585C81.4782 77.2669 79.9263 74.3361 78.6293 72.6212C78.211 72.0681 77.9521 71.4055 77.957 70.7125C78.0051 63.9067 76.9141 52.0837 76.1347 50.9135C74.6577 48.6961 88.6481 60.5659 91.2409 66.1778C93.8338 71.7897 104.994 65.8411 105.333 64.6065C105.376 64.4471 105.373 64.0709 105.368 63.5323V63.5283C105.336 59.9857 105.239 49.452 117.905 47.3619C118.432 47.2751 118.886 47.7353 118.853 48.2666C118.43 54.9272 123.364 66.6213 126.526 69.7694C129.863 73.0917 139.566 73.0991 144 72.6876V127.794C143.684 127.64 143.369 127.477 143.065 127.3C142.897 127.203 142.721 127.111 142.539 127.015C140.286 125.832 136.965 124.087 133.138 104.825C132.95 103.878 129.475 93.2317 120.966 89.9195C123.133 90.3926 127.773 90.7002 129.002 88.1451C130.538 84.9511 129.829 77.3803 122.148 80.2194C122.502 79.0364 122.762 76.3867 120.966 75.251C119.939 74.6019 119.926 75.5853 119.908 76.8439C119.888 78.3378 119.862 80.2194 118.13 80.2194C117.578 80.2194 116.405 79.2257 116.121 75.251C115.837 71.2764 115.057 77.6958 114.703 81.4023C113.994 80.7714 112.481 79.0837 112.103 77.3803C111.725 75.6769 110.527 80.7714 109.976 83.5316C109.582 83.1373 108.7 81.9228 108.321 80.2194C107.943 78.5159 107.218 84.0048 106.903 86.9621L106.902 86.9737C106.838 87.5749 106.665 89.1952 106.431 86.9621C106.121 84.021 102.885 93.7049 107.376 96.0707C106.47 96.6622 104.422 98.2947 102.531 100.566H109.267L110.33 102.222C109.267 102.459 107.565 104.612 108.321 108.965C109.078 113.318 112.536 112.08 114.348 110.739C115.741 111.793 116.647 116.568 111.965 128.475Z" fill="white"/>
</svg>
